<svg width="34" height="27" viewBox="0 0 34 27" fill="none" xmlns="http://www.w3.org/2000/svg">
<path d="M32.9231 0.412941C31.404 -0.498479 29.961 1.22309 28.8976 2.10919C27.8596 3.02062 26.8216 3.93204 25.8089 4.84346C25.4292 3.75482 24.7963 2.79276 23.7329 2.15983C21.024 0.564843 17.9353 0.868651 14.9225 1.04587C11.606 1.22309 8.23879 0.716745 5.04882 1.88134C-0.926051 4.08394 0.0866384 11.5272 0.0360039 16.6666C0.0360039 19.4262 0.111956 23.0972 2.31455 25.1226C3.27661 26.0087 4.54247 26.1606 5.78302 26.2365C7.78308 26.3631 9.80846 26.2618 11.8085 26.2365C14.8719 26.1859 18.2391 26.8948 21.2265 26.034C23.8595 25.2745 25.176 23.325 25.733 20.7427C25.9862 19.5781 26.1634 18.3882 26.29 17.1983C26.3153 17.1476 26.3406 17.097 26.3406 17.0464C26.3912 16.8945 26.3912 16.7426 26.3406 16.616C26.5178 14.5906 26.5431 12.5399 26.4419 10.5398C27.4292 9.62841 28.4419 8.71699 29.4546 7.83089C30.8218 6.64098 32.9231 5.40043 33.7079 3.67886C34.2649 2.5649 34.037 1.07119 32.9231 0.412941ZM20.1379 24.7681C20.1379 24.6668 20.1126 24.5909 20.0872 24.4896C20.2138 24.4643 20.3404 24.439 20.467 24.3884C20.4164 24.4896 20.3657 24.6162 20.3151 24.7175C20.2392 24.7681 20.1885 24.7681 20.1379 24.7681ZM17.7834 21.4009C16.4669 21.5781 15.1504 21.7047 13.8339 21.7807C12.5174 21.8819 11.1756 21.9326 9.85909 21.9326C8.64386 21.9326 7.07419 22.1604 5.88428 21.8566C5.22604 21.9579 4.79564 21.6541 4.56779 20.8946C4.54247 20.5148 4.51715 20.1351 4.51715 19.7553C4.49184 19.173 4.46652 18.616 4.4412 18.0337C4.39057 16.616 4.33993 15.1729 4.33993 13.7551C4.33993 12.4133 4.33993 11.0968 4.36525 9.755C4.36525 9.1727 4.23866 8.31192 4.41588 7.75494C4.79564 6.53971 5.42857 6.59035 6.41595 6.38781C9.12489 5.88146 11.8591 5.62829 14.6187 5.50171C15.9352 5.45107 17.2517 5.42575 18.5682 5.40043C19.8341 5.37511 20.9987 5.07131 21.5303 6.46376C21.7582 7.04605 21.8848 7.7043 21.9607 8.38787C20.7202 9.55246 19.4796 10.7424 18.2644 11.9323C17.9353 12.2614 17.1251 13.4007 16.6947 13.5273C16.0871 13.6792 15.7327 13.1475 15.277 12.7677C14.3149 11.907 13.4541 10.9449 12.7199 9.88158C12.4921 9.55246 12.1376 9.45119 11.7579 9.57777C11.5047 9.40055 11.125 9.37524 10.8465 9.67905C10.1376 10.4386 9.09957 11.5272 8.8464 12.5652C8.61854 13.5779 9.30211 14.1096 10.0363 14.6159C12.4161 16.3122 15.0998 17.578 17.8846 18.4388C18.1378 18.5148 18.4416 18.4388 18.6188 18.2363C19.7834 17.021 20.9734 15.8058 22.1886 14.6159C22.1633 14.9957 22.1379 15.3754 22.1126 15.7552C22.0114 16.9451 22.062 18.3629 21.7582 19.5274C21.2518 21.325 19.353 21.1984 17.7834 21.4009ZM17.7834 3.85609C18.0872 3.78013 18.3657 3.70418 18.6695 3.67886C18.6948 3.75481 18.7201 3.85608 18.7708 3.93203C18.4163 3.93203 18.0366 3.93203 17.6821 3.93203C17.7327 3.90672 17.7581 3.8814 17.7834 3.85609ZM11.9351 11.4766C11.8845 11.4512 11.8592 11.4513 11.8085 11.4259C11.8338 11.4006 11.8338 11.3753 11.8591 11.3247C11.8845 11.3753 11.9351 11.4259 11.9604 11.4513C11.9604 11.4766 11.9604 11.4766 11.9351 11.4766ZM10.8465 13.426L10.8718 13.4513C10.8465 13.426 10.7958 13.4007 10.7705 13.35C10.7705 13.35 10.7705 13.3247 10.7452 13.3247C10.7705 13.4007 10.7958 13.426 10.8465 13.426ZM13.8845 15.2488L13.9098 15.2741C13.9352 15.2995 13.9858 15.3248 14.0111 15.3501C13.9605 15.3248 13.9098 15.2995 13.8339 15.2741C13.8592 15.2488 13.8845 15.2488 13.8845 15.2488ZM15.1757 4.00798C14.72 4.0333 14.239 4.05862 13.7833 4.08394C14.1883 3.7295 14.6187 3.42569 15.0744 3.1472C15.0491 3.19783 15.0491 3.27379 15.0238 3.32442C14.9225 3.60291 14.9985 3.83076 15.1757 4.00798ZM12.2642 4.18521C12.1123 4.18521 11.9604 4.21053 11.8085 4.21053C11.9351 4.13457 12.0364 4.0333 12.163 3.95735C12.1883 4.05862 12.2136 4.10925 12.2642 4.18521ZM8.41601 4.48902C8.44132 4.51433 8.44132 4.56497 8.46664 4.59028C8.39069 4.59028 8.31474 4.6156 8.23879 4.6156C8.28942 4.59029 8.34006 4.53965 8.41601 4.48902ZM23.1253 20.3629C23.1506 20.2616 23.1759 20.1857 23.1759 20.0844C23.1759 20.1351 23.1759 20.1857 23.1759 20.211C23.1759 20.2616 23.1506 20.3123 23.1253 20.3629ZM2.54241 16.1856C2.64368 16.1349 2.74495 16.0843 2.8209 15.983C2.8209 16.54 2.84622 17.1223 2.84622 17.6793C2.74495 17.1729 2.64368 16.6666 2.54241 16.1856ZM13.4541 23.325C13.3529 23.3503 13.2516 23.3757 13.125 23.401C12.9984 23.3757 12.8465 23.3757 12.7199 23.3504C12.9731 23.3504 13.2263 23.325 13.4541 23.325ZM19.7834 23.0465C19.6569 22.8946 19.4796 22.7934 19.2265 22.8187C19.1505 22.8187 19.0746 22.844 18.9733 22.844C18.948 22.8187 18.9227 22.7934 18.8973 22.7681C19.6062 22.6668 20.3151 22.5655 20.9987 22.3883C21.2012 22.3377 21.4037 22.287 21.581 22.2111C21.4797 22.3883 21.3784 22.5655 21.2772 22.7174C20.7708 22.8187 20.2898 22.92 19.7834 23.0465ZM24.6443 17.3248C24.6443 16.9451 24.6697 16.5653 24.695 16.1856C24.7709 16.1349 24.8722 16.0843 24.9228 16.0337V16.059C24.8975 16.3122 24.8722 16.5653 24.8722 16.8438C24.7963 16.9957 24.7203 17.1476 24.6443 17.3248ZM30.1382 3.07125C30.0876 3.07125 30.0622 3.09657 30.0116 3.12188C29.9863 3.12188 29.961 3.1472 29.961 3.1472C30.0116 3.09656 30.0876 3.04593 30.1382 2.9953C30.1382 3.04593 30.1382 3.04593 30.1382 3.07125ZM1.65631 19.1983C1.60567 18.9451 1.60567 18.692 1.58036 18.4388C1.60567 18.692 1.63099 18.9451 1.65631 19.1983ZM8.87172 24.2111C9.07425 24.1858 9.25148 24.1858 9.40338 24.1858C9.40338 24.1858 9.40338 24.1858 9.40338 24.2111C9.45401 24.5656 9.83377 24.7175 10.1123 24.7681C10.3401 24.7934 10.5173 24.7681 10.6692 24.6922C10.973 24.7175 11.2515 24.7428 11.5553 24.7681C10.6692 24.7934 9.78314 24.7934 8.89703 24.8187C8.97299 24.5909 8.94767 24.3884 8.87172 24.2111ZM24.5431 5.98273C24.5178 6.00805 24.4924 6.03336 24.4418 6.05868C24.4418 6.05868 24.4418 6.05868 24.4165 6.05868C24.2899 5.67892 24.1886 5.29916 24.0621 4.94472C23.9861 4.69155 23.8089 4.53965 23.6063 4.4637C23.4038 4.10926 23.1759 3.78013 22.9228 3.45101C23.9608 4.0333 24.3405 4.97004 24.5431 5.98273ZM3.12471 4.94472C3.17534 4.86877 3.25129 4.81814 3.30193 4.74219C3.30193 4.76751 3.30193 4.7675 3.30193 4.79282C3.27661 4.9194 3.32724 5.07131 3.40319 5.17258C3.15002 5.72956 2.87153 6.28654 2.64368 6.86883C2.49177 6.79288 2.31455 6.76756 2.13733 6.79288C2.36519 6.13463 2.69431 5.5017 3.12471 4.94472ZM2.41582 22.6161C2.74495 23.1225 3.17534 23.5529 3.63105 23.9326C3.63105 23.9833 3.63105 24.0339 3.63105 24.0845C3.12471 23.7301 2.71963 23.2491 2.41582 22.6161ZM26.4166 8.5904C26.4166 8.53977 26.4166 8.48913 26.4166 8.4385C26.695 8.16001 26.9735 7.8562 27.252 7.57771C27.2773 7.5524 27.2773 7.5524 27.2773 7.52708C27.3027 7.57772 27.3533 7.62835 27.4039 7.67898C27.328 7.72962 27.2773 7.80557 27.2014 7.8562C26.9229 8.10938 26.6697 8.36255 26.4166 8.5904ZM31.0749 4.56497C31.2268 4.31179 31.3534 4.05862 31.48 3.80545C31.7838 3.57759 32.0623 3.34974 32.3408 3.12188C32.1889 3.37506 32.0117 3.60291 31.8851 3.7295C31.6572 4.03331 31.3534 4.31179 31.0749 4.56497Z" fill="#2F3362"/>
</svg>
