<svg width="113" height="93" viewBox="0 0 113 93" fill="none" xmlns="http://www.w3.org/2000/svg">
<circle cx="39" cy="39" r="39" fill="#99C1AC"/>
<g clip-path="url(#clip0_170_36)">
<path fill-rule="evenodd" clip-rule="evenodd" d="M102.623 46.1084C101.751 46.7074 100.944 47.3959 100.215 48.1626C99.9924 48.3432 99.8494 48.6035 99.8163 48.888C99.7832 49.1725 99.8627 49.4587 100.038 49.6855C100.923 50.7834 101.773 49.6855 103.579 48.7292C104.183 48.5245 104.824 48.4569 105.457 48.5313C106.09 48.6058 106.698 48.8205 107.238 49.1598C107.777 49.4991 108.234 49.9544 108.576 50.4926C108.917 51.0308 109.134 51.6383 109.211 52.2709C109.008 54.2365 108.204 56.0918 106.908 57.5834C104.996 55.7772 100.781 52.2001 99.648 51.0667C99.5387 50.9505 99.4076 50.8569 99.2621 50.7913C99.1167 50.7257 98.9597 50.6894 98.8002 50.6844C98.6407 50.6795 98.4818 50.706 98.3325 50.7625C98.1833 50.819 98.0466 50.9043 97.9303 51.0136C97.8141 51.1229 97.7205 51.2541 97.6549 51.3995C97.5893 51.545 97.553 51.702 97.548 51.8615C97.5431 52.021 97.5696 52.1799 97.6261 52.3291C97.6826 52.4784 97.7679 52.6151 97.8772 52.7313C98.9397 53.9355 103.19 57.8667 104.961 59.8147C103.296 61.2667 101.029 63.9938 90.5105 74.6188C90.0586 73.3018 89.3138 72.1044 88.3323 71.1168C87.3508 70.1291 86.1581 69.3769 84.8439 68.9168C88.3855 64.4543 93.273 58.9647 96.5668 55.1751C97.1335 54.3605 96.5668 52.9084 95.1855 53.6168C94.8668 53.7938 78.7876 69.9084 78.3272 71.9272C76.5918 79.8251 75.8126 82.7293 76.8397 83.9688C77.3527 84.3996 77.9596 84.704 78.6115 84.8578C79.2635 85.0116 79.9425 85.0103 80.5939 84.8543C83.45 84.3159 86.2082 83.3487 88.7751 81.9855C89.9793 81.1355 108.856 60.4168 111.548 56.1668C112.59 54.9169 113.149 53.3347 113.124 51.7076C113.099 50.0805 112.491 48.5163 111.411 47.2991C110.331 46.0819 108.851 45.2924 107.238 45.0739C105.625 44.8554 103.988 45.2225 102.623 46.1084ZM80.4876 81.2418C81.6564 71.6438 81.7272 72.7772 83.073 71.0417C84.5717 73.1591 86.3736 75.0446 88.421 76.6376L86.473 78.4792C84.6234 79.6873 82.6069 80.618 80.4876 81.2418Z" fill="black"/>
<path fill-rule="evenodd" clip-rule="evenodd" d="M73.6522 88.1125C67.9501 88.1125 38.7313 90.3792 35.473 85.7396C32.6397 81.7021 31.9313 40.9729 32.1438 31.5875C32.1438 21.5646 32.5688 28.0459 32.4272 17.6688C35.8656 16.3809 39.4253 15.4435 43.0522 14.8708C52.4387 13.5776 61.9121 13.021 71.3855 13.2063C73.8186 12.9224 76.2727 12.8631 78.7167 13.0292L91.6438 25.425C92.1318 27.0442 92.4755 28.7035 92.6709 30.3834C94.5126 42.9209 93.7688 45.4709 95.823 45.1167C95.9822 45.0911 96.1347 45.0338 96.2714 44.9482C96.4081 44.8626 96.5262 44.7504 96.6187 44.6183C96.7112 44.4861 96.7762 44.3368 96.8099 44.179C96.8435 44.0213 96.8452 43.8584 96.8147 43.7C96.1063 39.2375 95.5042 25.1771 93.698 23.4417C79.7084 10.4438 81.1251 9.62918 76.7334 9.55835C74.8563 9.55835 72.5897 9.91252 71.2792 9.80627C62.4959 9.20418 41.423 9.6646 31.5417 13.6667C27.0438 15.4021 28.673 19.0146 28.3542 22.9104C27.6446 39.2747 28.1299 55.6689 29.8063 71.9625C31.2584 85.3146 31.5063 88.1125 36.2522 89.8479C44.5751 92.8938 63.8417 90.6625 73.6876 90.2729C73.9399 90.223 74.1667 90.086 74.3284 89.8858C74.49 89.6857 74.5763 89.4352 74.5721 89.1779C74.5678 88.9207 74.4734 88.6731 74.3053 88.4784C74.1372 88.2837 73.906 88.1542 73.6522 88.1125Z" fill="black"/>
<path fill-rule="evenodd" clip-rule="evenodd" d="M48.7897 41.4333C50.4458 37.747 51.6355 33.8684 52.3314 29.8875C52.4152 29.7287 52.4625 29.5531 52.4697 29.3736C52.4769 29.1942 52.4439 29.0154 52.3731 28.8503C52.3022 28.6853 52.1954 28.5382 52.0603 28.4198C51.9253 28.3014 51.7654 28.2147 51.5925 28.1661C51.4196 28.1174 51.2381 28.1081 51.0611 28.1387C50.8841 28.1694 50.7162 28.2392 50.5698 28.3431C50.4233 28.4471 50.3019 28.5824 50.2145 28.7394C50.1271 28.8963 50.0759 29.0707 50.0647 29.25C42.9814 46.3208 43.3355 42.3542 40.6439 40.8667C40.3525 40.6533 40.0109 40.5191 39.6522 40.4771C38.9793 40.4771 38.6251 40.725 38.5189 41.2208C38.4126 41.7167 42.0605 45.2229 42.273 45.4708C45.0355 47.6667 47.1605 44.6562 48.7897 41.4333Z" fill="black"/>
<path fill-rule="evenodd" clip-rule="evenodd" d="M43.6542 68.6333C48.6834 72.7417 52.4375 59.4958 53.7834 53.0854C53.8299 52.9319 53.8457 52.7708 53.8299 52.6112C53.8142 52.4516 53.7671 52.2967 53.6915 52.1552C53.6158 52.0138 53.5131 51.8887 53.3891 51.787C53.2651 51.6853 53.1223 51.609 52.9688 51.5625C52.8153 51.516 52.6541 51.5002 52.4945 51.5159C52.335 51.5317 52.18 51.5787 52.0386 51.6544C51.8972 51.73 51.7721 51.8328 51.6704 51.9568C51.5686 52.0808 51.4924 52.2236 51.4459 52.3771C50.6667 54.325 50.0292 55.4583 46.0625 63.675C44.6459 66.6146 45.5667 65.9771 42.025 63.9937C41.716 63.8146 41.3817 63.6833 41.0334 63.6042C40.3604 63.6042 39.9709 63.8875 39.8646 64.3833C39.7584 64.8792 43.0167 68.2083 43.6542 68.6333Z" fill="black"/>
<path fill-rule="evenodd" clip-rule="evenodd" d="M68.8001 36.8292C64.3041 37.1159 59.8453 37.8274 55.4834 38.9542C55.2016 38.9542 54.9314 39.0662 54.7321 39.2654C54.5328 39.4647 54.4209 39.7349 54.4209 40.0167C54.4209 40.2985 54.5328 40.5688 54.7321 40.768C54.9314 40.9673 55.2016 41.0792 55.4834 41.0792C61.5174 41.6942 67.6119 41.2871 73.5105 39.8751C75.7772 39.5209 79.6376 39.2376 77.6896 37.4313C74.7701 36.8093 71.7768 36.6066 68.8001 36.8292Z" fill="black"/>
<path fill-rule="evenodd" clip-rule="evenodd" d="M79.1417 62.4709C79.3688 62.2392 79.496 61.9276 79.496 61.6032C79.496 61.2787 79.3688 60.9672 79.1417 60.7355C76.2112 60.1061 73.2085 59.8797 70.2167 60.0626C65.7338 60.3402 61.287 61.0398 56.9355 62.1521C56.6825 62.1981 56.4537 62.3315 56.2889 62.5289C56.1242 62.7263 56.0339 62.9752 56.0339 63.2323C56.0339 63.4895 56.1242 63.7384 56.2889 63.9358C56.4537 64.1332 56.6825 64.2666 56.9355 64.3126C61.4534 64.75 66.0076 64.6429 70.5 63.9938C78.2563 62.8605 78.8584 62.7542 79.1417 62.4709Z" fill="black"/>
</g>
<defs>
<clipPath id="clip0_170_36">
<rect width="85" height="85" fill="white" transform="translate(28 8)"/>
</clipPath>
</defs>
</svg>
