<svg width="107" height="93" viewBox="0 0 107 93" fill="none" xmlns="http://www.w3.org/2000/svg">
<circle cx="39" cy="39" r="39" fill="#99A7C1"/>
<g clip-path="url(#clip0_170_37)">
<path fill-rule="evenodd" clip-rule="evenodd" d="M75.1244 14.374C75.4072 14.15 75.6576 13.8877 75.8682 13.5948C76.0774 13.3132 76.2668 13.0174 76.4349 12.7094C77.8515 9.73441 77.9224 9.16774 77.2494 8.53024C76.5765 7.89274 76.364 7.46774 73.2119 10.0886C72.9272 10.3089 72.6661 10.5581 72.4328 10.8323C72.212 11.1133 72.0108 11.4091 71.8307 11.7177C70.2369 15.2594 70.8744 15.5427 71.1224 15.7907C71.9724 16.5344 74.8411 14.5865 75.1244 14.374Z" fill="#292929"/>
<path fill-rule="evenodd" clip-rule="evenodd" d="M92.4799 24.2199C92.8361 24.0711 93.1796 23.8934 93.507 23.6886C97.0486 21.7053 97.0486 21.3157 96.8007 20.572C96.5528 19.8282 96.0569 19.1907 92.1257 19.7928C91.7037 19.8614 91.2889 19.9681 90.8861 20.1115C90.4768 20.2567 90.0848 20.4467 89.7174 20.6782C89.7174 20.6782 86.3528 23.122 86.884 24.2199C86.884 24.574 87.2382 25.3532 91.3465 24.574C91.7336 24.4879 92.1127 24.3694 92.4799 24.2199Z" fill="#292929"/>
<path fill-rule="evenodd" clip-rule="evenodd" d="M98.2884 44.9029C97.9216 44.5007 97.5185 44.1332 97.0843 43.805C96.6549 43.4539 96.1922 43.1455 95.703 42.8841C95.2426 42.6716 91.0988 40.7237 90.3551 42.0696C90.1072 42.4946 89.6113 42.7425 93.2593 46.3196C93.6039 46.6756 93.9836 46.996 94.3926 47.2758C94.7952 47.5914 95.2214 47.8756 95.6676 48.1258C99.5988 50.4633 100.236 50.4633 100.838 49.6841C101.441 48.905 101.37 48.3029 98.2884 44.9029Z" fill="#292929"/>
<path fill-rule="evenodd" clip-rule="evenodd" d="M34.1477 27.8334C33.791 27.706 33.4235 27.6111 33.0498 27.55H31.9518C27.7373 27.8688 27.9143 28.825 27.8789 29.1792C27.8435 29.5334 27.8789 30.348 31.4206 31.6584C31.7425 31.7807 32.0743 31.8755 32.4123 31.9417C32.7646 31.9921 33.1224 31.9921 33.4748 31.9417C37.3352 31.7292 37.3352 30.95 37.406 30.5959C37.5831 29.5334 34.4664 27.975 34.1477 27.8334Z" fill="#292929"/>
<path fill-rule="evenodd" clip-rule="evenodd" d="M32.2367 47.7016C31.8242 47.9354 31.4433 48.2211 31.1033 48.5516C30.73 48.8525 30.4072 49.2112 30.1471 49.6141C27.2783 53.5099 28.1992 54.0411 28.5179 54.3245C28.8367 54.6078 29.4742 54.962 33.0158 52.5891L34.0075 51.8807L34.8929 50.9953C37.4075 47.9849 37.4783 47.4536 37.0888 46.9578C36.6992 46.462 33.0158 47.2766 32.2367 47.7016Z" fill="#292929"/>
<path fill-rule="evenodd" clip-rule="evenodd" d="M68.9987 40.4407C67.667 40.116 66.2935 39.9965 64.9258 40.0866V37.5366V35.3407C66.2311 35.4816 67.5083 35.8159 68.7153 36.3324C68.8474 36.4066 68.993 36.4536 69.1435 36.4706C69.2941 36.4876 69.4465 36.4742 69.5918 36.4313C69.737 36.3884 69.8722 36.3168 69.9894 36.2207C70.1065 36.1246 70.2032 36.0061 70.2737 35.872C70.3466 35.7378 70.3917 35.5902 70.4062 35.4382C70.4206 35.2861 70.4042 35.1327 70.3579 34.9871C70.3116 34.8416 70.2363 34.7069 70.1367 34.5912C70.037 34.4754 69.9149 34.381 69.7778 34.3136C68.2438 33.5093 66.5752 32.9931 64.8549 32.7907V27.4428C64.8848 27.1381 64.794 26.8339 64.6019 26.5954C64.4099 26.357 64.1319 26.2035 63.8279 26.1678C63.525 26.1468 63.2254 26.2409 62.9889 26.4313C62.7525 26.6218 62.5968 26.8945 62.5528 27.1949C62.2341 28.9657 61.9862 30.7366 61.6674 32.5428C60.7229 32.5907 59.7856 32.7331 58.8695 32.9678C58.0974 33.1001 57.3593 33.3845 56.698 33.8044C56.0368 34.2244 55.4655 34.7715 55.0174 35.414C54.5692 36.0565 54.2532 36.7816 54.0877 37.5473C53.9221 38.3129 53.9103 39.1038 54.0528 39.8741C54.1494 40.8215 54.5186 41.7205 55.1158 42.4623C55.713 43.204 56.5125 43.7567 57.4174 44.0532C58.4629 44.4244 59.5666 44.6044 60.6758 44.5845V46.3199C60.6758 47.8428 60.9591 49.3657 61.1008 50.8532C58.879 50.9704 56.6863 50.3063 54.9028 48.9761C54.7838 48.8519 54.6409 48.753 54.4826 48.6854C54.3244 48.6178 54.1541 48.583 53.982 48.583C53.8099 48.583 53.6396 48.6178 53.4814 48.6854C53.3231 48.753 53.1802 48.8519 53.0612 48.9761C52.8189 49.2214 52.6831 49.5523 52.6831 49.897C52.6831 50.2417 52.8189 50.5725 53.0612 50.8178C55.3657 52.8127 58.301 53.9291 61.3487 53.9699C61.3487 54.8907 61.5258 55.8116 61.632 56.697C61.632 57.0445 61.7701 57.3778 62.0158 57.6236C62.2616 57.8693 62.5949 58.0074 62.9424 58.0074C63.29 58.0074 63.6233 57.8693 63.869 57.6236C64.1148 57.3778 64.2528 57.0445 64.2528 56.697V54.0407C65.2244 53.9592 66.1853 53.7813 67.1216 53.5095C68.1022 53.3046 69.03 52.8999 69.8474 52.3207C70.6647 51.7415 71.354 51.0002 71.8724 50.1429C72.3907 49.2857 72.7269 48.3309 72.8601 47.338C72.9933 46.3452 72.9207 45.3355 72.6466 44.372C72.4525 43.4474 72.0104 42.593 71.3678 41.9005C70.7252 41.208 69.9062 40.7034 68.9987 40.4407ZM57.9487 39.1303C57.4174 36.9699 59.0466 35.9782 61.0653 35.5886C61.0653 36.1907 60.8174 36.7928 60.7466 37.3949C60.6758 37.997 60.7466 39.3074 60.7466 40.2991C60.2878 40.353 59.8242 40.353 59.3653 40.2991C59.0251 40.3199 58.6896 40.2108 58.4267 39.9939C58.1637 39.777 57.9929 39.4683 57.9487 39.1303ZM64.5008 50.4991L64.7133 46.3553V44.5137H64.9258C65.6786 44.4228 66.4396 44.4228 67.1924 44.5137C67.7945 44.5137 68.3258 44.797 68.5028 45.4345C69.4591 48.2678 67.1924 49.7907 64.5008 50.4991Z" fill="#292929"/>
<path fill-rule="evenodd" clip-rule="evenodd" d="M63.3667 17.8096C52.7417 17.8096 42.1167 23.2638 38.9292 32.1888C37.9175 34.7502 37.4396 37.4914 37.5248 40.2441C37.6101 42.9969 38.2567 45.7032 39.4251 48.1971C42.1133 52.9489 45.5859 57.2118 49.6959 60.8054C51.5021 62.6471 52.9896 64.0992 53.0605 65.5513C53.067 65.7755 53.1552 65.9896 53.3084 66.1534H50.9001C50.5954 66.1234 50.2911 66.2143 50.0527 66.4063C49.8142 66.5984 49.6607 66.8764 49.6251 67.1804C49.6249 67.4033 49.6926 67.6209 49.8191 67.8044C49.9457 67.9878 50.125 68.1284 50.3334 68.2075C50.1856 68.2583 50.0514 68.3421 49.9409 68.4526C49.8305 68.5631 49.7467 68.6973 49.6959 68.845C49.3104 69.5126 49.1075 70.27 49.1075 71.0409C49.1075 71.8118 49.3104 72.5691 49.6959 73.2367C50.3033 74.1266 51.1175 74.8558 52.0688 75.3617C51.854 76.5306 51.7356 77.7151 51.7146 78.9034C51.7029 79.9312 51.9592 80.9444 52.4584 81.8429C53.1465 82.9887 54.1738 83.8921 55.398 84.4284C55.6049 84.515 55.818 84.586 56.0355 84.6409C55.8895 85.8969 55.9735 87.1691 56.2834 88.395C56.6543 89.516 57.2995 90.5265 58.1605 91.3346C58.9878 92.0073 59.9381 92.5125 60.9584 92.8221C62.0184 93.0698 63.1213 93.0698 64.1813 92.8221C65.3023 92.6478 66.3388 92.1215 67.141 91.3193C67.9431 90.5171 68.4695 89.4806 68.6438 88.3596C68.6921 88.1922 68.7065 88.0168 68.6862 87.8437C68.6659 87.6706 68.6113 87.5034 68.5255 87.3516C68.4398 87.1999 68.3246 87.0669 68.1868 86.9602C68.049 86.8535 67.8913 86.7754 67.723 86.7304C67.39 86.6528 67.0401 86.7048 66.7441 86.8758C66.4481 87.0468 66.2282 87.3241 66.1292 87.6513C65.9562 88.003 65.6962 88.3047 65.3739 88.5279C65.0516 88.751 64.6777 88.8881 64.2875 88.9263C63.7968 88.9554 63.3048 88.8954 62.8355 88.7492C62.0922 88.6144 61.3896 88.3115 60.7813 87.8638C60.1564 87.5489 59.6388 87.0559 59.2938 86.4471C59.1271 86.0708 58.9967 85.6794 58.9042 85.2784L60.3209 85.4554C62.2072 85.5952 64.1012 85.5952 65.9876 85.4554C68.1322 85.2462 70.1841 84.4767 71.9376 83.2242C73.0379 82.3522 73.8543 81.173 74.2831 79.8361C74.7119 78.4993 74.7337 77.0652 74.3459 75.7159C75.3493 75.2856 76.2717 74.6867 77.073 73.945C77.6488 73.4669 78.0584 72.8186 78.243 72.0933C78.4275 71.3679 78.3774 70.6027 78.1001 69.9075C78.0633 69.7419 77.9928 69.5855 77.8932 69.4482C77.7935 69.3109 77.6667 69.1955 77.5206 69.1092C77.3745 69.0228 77.2122 68.9674 77.0439 68.9464C76.8755 68.9253 76.7046 68.939 76.5417 68.9867C76.374 69.0281 76.2162 69.1022 76.0772 69.2049C75.9383 69.3075 75.821 69.4366 75.7322 69.5847C75.6433 69.7328 75.5846 69.897 75.5594 70.0679C75.5342 70.2388 75.5431 70.413 75.5855 70.5804C75.7626 71.2888 75.4084 71.3596 74.9834 71.7492C73.8159 72.4526 72.512 72.8994 71.1584 73.0596C68.5765 73.528 65.9549 73.7415 63.3313 73.6971C61.7742 73.7861 60.2134 73.7861 58.6563 73.6971C58.2313 73.6971 53.1313 73.4138 52.0334 71.9971C51.8297 71.7204 51.7 71.3962 51.6566 71.0553C51.6132 70.7144 51.6576 70.3681 51.7855 70.0492C51.8571 69.8479 51.8684 69.6302 51.8181 69.4226C51.7677 69.215 51.6579 69.0266 51.5021 68.8804C54.3183 69.5656 57.167 70.1094 60.0375 70.5096C61.4135 70.6649 62.7967 70.7477 64.1813 70.7575C65.5771 70.7583 66.972 70.6874 68.3605 70.545C71.6306 70.2066 74.851 69.4936 77.9584 68.42C78.1258 68.3782 78.2834 68.3037 78.422 68.201C78.5607 68.0982 78.6778 67.9692 78.7666 67.8212C78.8554 67.6732 78.9142 67.5092 78.9396 67.3385C78.965 67.1678 78.9565 66.9937 78.9146 66.8263C78.8728 66.6588 78.7983 66.5013 78.6956 66.3626C78.5929 66.2239 78.4638 66.1069 78.3158 66.0181C78.1678 65.9293 78.0038 65.8705 77.8331 65.8451C77.6624 65.8197 77.4883 65.8282 77.3209 65.87C76.5771 65.87 75.8334 65.87 75.0896 66.1179C75.7814 64.5788 76.6363 63.1184 77.6396 61.7617C81.6103 56.7851 84.8209 51.247 87.1667 45.3284C88.5136 41.3304 88.5136 37.0013 87.1667 33.0034C83.6959 22.5554 73.6376 17.7388 63.3667 17.8096ZM63.3667 78.0179C66.1322 77.9305 68.8728 77.4658 71.5125 76.6367C71.565 77.3206 71.4392 78.0063 71.1474 78.6271C70.8557 79.2478 70.4079 79.7823 69.848 80.1784C68.5114 80.8136 67.0414 81.1173 65.5626 81.0638C63.8637 81.1538 62.1614 81.1538 60.4625 81.0638C59.2689 81.1197 58.0738 80.9882 56.9209 80.6742C56.286 80.5699 55.7129 80.2327 55.3133 79.7284C54.9138 79.2241 54.7167 78.589 54.7605 77.9471V76.7784C57.5977 77.632 60.5455 78.0617 63.5084 78.0534L63.3667 78.0179ZM83.7667 44.0888C81.7326 49.7606 78.8421 55.0875 75.1959 59.8846C73.8751 61.8015 72.8706 63.918 72.2209 66.1534H66.9438H61.6667H55.0792C55.2372 65.9615 55.3357 65.7276 55.3626 65.4804C54.82 62.974 53.4776 60.7118 51.5376 59.0346C47.8094 55.5738 44.7168 51.4862 42.4001 46.9575C41.4876 44.8563 41.0168 42.59 41.0168 40.2992C41.0168 38.0084 41.4876 35.7421 42.4001 33.6409C45.4813 26.1679 54.5125 22.1659 63.4021 22.1659C72.2917 22.1659 80.473 25.7075 83.625 34.0659C84.8186 37.2971 84.9182 40.8309 83.9084 44.1242L83.7667 44.0888Z" fill="#292929"/>
<path fill-rule="evenodd" clip-rule="evenodd" d="M46.3309 12.7459C46.4293 13.1437 46.5844 13.5254 46.7913 13.8792C46.9872 14.2282 47.2123 14.5599 47.4642 14.8709C47.4642 14.8709 50.085 17.9521 51.0059 17.3854C51.9267 16.8188 51.0059 13.0292 51.0059 12.9229C50.898 12.5395 50.7434 12.1707 50.5454 11.825C50.3959 11.4917 50.2182 11.1718 50.0142 10.8688C47.535 7.7521 47.0038 7.82294 46.4725 8.1771C45.9413 8.53127 45.1975 8.92085 46.3309 12.7459Z" fill="#292929"/>
</g>
<defs>
<clipPath id="clip0_170_37">
<rect width="85" height="85" fill="white" transform="translate(22 8)"/>
</clipPath>
</defs>
</svg>
