<svg width="98" height="93" viewBox="0 0 98 93" fill="none" xmlns="http://www.w3.org/2000/svg">
<circle cx="39" cy="39" r="39" fill="#F0DA8C"/>
<g clip-path="url(#clip0_170_38)">
<path fill-rule="evenodd" clip-rule="evenodd" d="M97.9998 83.048C97.504 79.5063 92.9707 75.6813 90.7394 74.123L88.3665 72.4584C85.9582 70.6521 86.8436 69.8375 85.4269 69.8375C85.4269 66.2959 85.8873 63.0021 85.8873 59.9209V55.6709C85.8873 54.2896 85.604 52.8375 85.3915 51.4209C84.8957 48.3396 84.2228 45.223 83.3728 41.6105C83.3201 41.2493 83.1267 40.9236 82.8347 40.7046C82.5427 40.4856 82.1759 40.3911 81.8144 40.4417C81.6367 40.4675 81.466 40.5286 81.3123 40.6214C81.1585 40.7142 81.0249 40.8368 80.9193 40.982C80.8137 41.1272 80.7382 41.2921 80.6973 41.467C80.6564 41.6418 80.6509 41.823 80.6811 42.0001C80.929 45.7542 80.929 49.0834 81.0707 52.0938C81.0707 54.3605 81.0707 56.5563 81.4603 58.7876C81.8498 62.3292 82.5228 65.8709 83.1603 69.9084H76.3248C72.0748 69.7313 67.7894 69.2709 63.5394 68.9875C60.6353 68.8105 57.7665 68.7042 54.8978 68.6334C51.3561 68.6334 47.9915 68.6334 44.5561 69.023C39.4207 69.4125 34.3561 70.0855 29.2207 70.723C28.9013 70.723 28.595 70.8498 28.3692 71.0757C28.1434 71.3015 28.0165 71.6078 28.0165 71.9271C28.0165 72.2465 28.1434 72.5528 28.3692 72.7786C28.595 73.0044 28.9013 73.1313 29.2207 73.1313H39.4207C44.4853 73.1313 49.5144 73.1313 54.6144 73.4146C57.6603 73.4146 60.7061 73.5917 63.7873 73.6626C66.8686 73.7334 69.9498 73.6626 73.0311 73.6626C76.5728 73.6626 80.3269 73.3792 83.904 73.0251L86.5603 75.1146L88.9332 76.9563C90.2174 77.8844 91.404 78.9405 92.4748 80.1084L77.8478 78.8334H63.3978C56.3144 78.8334 48.9832 79.2584 41.7936 79.2584C35.8436 79.4709 29.8228 80.2855 23.8373 80.498H17.4623C18.1119 78.8789 18.9949 77.3635 20.0832 76.0001L22.4915 73.8396L26.0332 71.5021C26.315 71.3518 26.5255 71.0958 26.6185 70.7902C26.7115 70.4847 26.6793 70.1548 26.529 69.873C26.3967 69.6643 26.2033 69.5014 25.9753 69.4064C25.7472 69.3113 25.4954 69.2888 25.254 69.3417L25.7498 62.825C25.9978 59.6021 26.3873 56.4146 26.6353 53.1563C26.8832 49.898 27.1665 46.7105 27.1665 43.4167C26.7769 35.1292 26.4582 39.0251 30.7082 38.3167L39.1019 36.7938C39.4308 36.692 39.7098 36.4712 39.8843 36.1745C40.0588 35.8777 40.1162 35.5266 40.0453 35.1897C39.9743 34.8529 39.7802 34.5547 39.5009 34.3535C39.2216 34.1523 38.8772 34.0627 38.5353 34.1021L30.354 34.8105C29.7165 34.8105 26.8123 34.5625 25.3957 34.8105C25.0275 34.8526 24.6716 34.9684 24.3492 35.1509C24.0267 35.3335 23.7442 35.579 23.5186 35.873C23.1293 36.5335 22.8877 37.2706 22.8103 38.0334C22.5623 39.7334 22.8103 42.3896 22.8103 43.3459C22.8103 46.6042 22.4561 49.8625 22.4207 53.0855C22.3853 56.3084 22.4207 59.6021 22.6686 62.8605L22.9873 70.7584L21.2519 71.8209L18.3832 74.1584C16.0289 76.4326 14.2765 79.2561 13.2832 82.3751C12.8343 83.6378 12.8093 85.0124 13.212 86.2906C13.6146 87.5688 14.4229 88.6809 15.5144 89.4584C16.7005 90.2419 18.0413 90.7613 19.4457 90.9813C21.2522 91.2327 23.077 91.3275 24.8998 91.2646L36.5165 91.7605C46.6457 91.7605 56.7748 92.3626 66.8686 92.398C71.2603 92.398 75.6519 92.398 80.0436 91.9376L87.3748 90.8042L91.9082 89.6355L94.9186 88.3605C95.9661 87.9662 96.8451 87.2219 97.4067 86.2537C97.9682 85.2855 98.1778 84.153 97.9998 83.048ZM93.3248 85.2084L90.8457 86.1292L86.7019 87.0501L79.9019 87.6876H71.2957C59.7144 87.6876 48.1332 86.9792 36.5519 87.0855H24.8644C23.2383 87.2273 21.603 87.2273 19.9769 87.0855C19.095 86.9741 18.242 86.6978 17.4623 86.2709C16.9165 85.8828 16.5157 85.3239 16.3233 84.6824C16.1308 84.0409 16.1578 83.3536 16.3998 82.7292C16.3998 82.7292 16.3998 82.5521 16.3998 82.4813C18.841 82.8362 21.3007 83.049 23.7665 83.1188C29.7165 83.3313 35.7728 83.1188 41.6873 83.1188H56.2082C63.2915 82.9417 70.6228 82.4459 77.8123 82.198H93.9978H94.2103C94.411 82.44 94.5476 82.7286 94.6077 83.0372C94.6678 83.3459 94.6494 83.6646 94.5543 83.9643C94.4591 84.264 94.2901 84.535 94.0629 84.7523C93.8357 84.9697 93.5576 85.1265 93.254 85.2084H93.3248Z" fill="#292929"/>
<path fill-rule="evenodd" clip-rule="evenodd" d="M46.3269 32.7917C47.5593 33.9339 48.8996 34.954 50.3289 35.8375C50.4656 35.96 50.6252 36.054 50.7986 36.1142C50.972 36.1743 51.1556 36.1992 51.3387 36.1876C51.5218 36.1759 51.7008 36.1279 51.8652 36.0463C52.0295 35.9647 52.176 35.8512 52.296 35.7124C52.416 35.5735 52.5071 35.4122 52.5641 35.2378C52.621 35.0633 52.6426 34.8793 52.6277 34.6964C52.6127 34.5135 52.5614 34.3355 52.4769 34.1726C52.3923 34.0098 52.2762 33.8654 52.1352 33.7479C51.1798 32.897 50.2918 31.9734 49.4789 30.9854C49.1377 30.5553 48.9176 30.0417 48.8414 29.4979L49.4435 28.5771C50.0837 27.5996 50.9452 26.7866 51.9581 26.2042C53.1324 25.5063 54.4123 25.004 55.7477 24.7167L57.2706 24.4688C57.2706 24.4688 56.9873 24.8229 56.881 25.0354C55.2697 27.7705 54.076 30.731 53.3394 33.8188C53.0175 35.0083 53.0116 36.2613 53.3221 37.4538C53.6327 38.6464 54.249 39.7373 55.1102 40.6188L57.8373 43.4167C58.7384 44.3395 59.8744 44.9987 61.1227 45.3232C62.3709 45.6478 63.6841 45.6253 64.9206 45.2583C68.0337 44.4278 71.0058 43.1387 73.7394 41.4333C74.0227 41.4333 74.2706 41.0438 74.5539 40.9021L74.2352 42.7083C73.9479 44.0438 73.4455 45.3236 72.7477 46.4979C72.1522 47.5624 71.3152 48.4722 70.3039 49.1542L69.3831 49.7563C68.8393 49.6801 68.3258 49.46 67.8956 49.1188C66.9159 48.2967 65.9929 47.4093 65.1331 46.4625C64.8915 46.193 64.5537 46.0291 64.1924 46.0061C63.8311 45.9831 63.4753 46.1029 63.2014 46.3396C62.9276 46.5763 62.7576 46.9111 62.7281 47.2719C62.6985 47.6327 62.8118 47.9907 63.0435 48.2688C63.9271 49.6981 64.9471 51.0384 66.0894 52.2708C66.785 52.942 67.6371 53.4289 68.5685 53.6875C69.222 53.8294 69.8984 53.8294 70.5519 53.6875C71.3528 53.5253 72.1197 53.2258 72.8185 52.8021C74.4779 51.8152 75.837 50.3949 76.7498 48.6938C77.3654 47.0046 77.6539 45.2137 77.5998 43.4167L77.3164 39.875C77.299 39.6629 77.299 39.4497 77.3164 39.2375C79.6538 37.6015 81.7724 35.6734 83.6206 33.5C86.4804 29.9965 88.4165 25.8322 89.2519 21.3875C89.5202 19.437 89.5202 17.4589 89.2519 15.5083C89.1982 13.7348 88.5354 12.0338 87.3748 10.6917C86.123 9.61012 84.5608 8.95298 82.9123 8.81459C80.9705 8.67633 79.019 8.78343 77.104 9.13334C72.7089 10.1094 68.6218 12.1529 65.2039 15.0833C63.0167 16.9811 61.0772 19.1468 59.431 21.5292H59.0414L55.4998 21.1042C53.6062 21.092 51.7288 21.453 49.9748 22.1667C48.1948 23.0694 46.7175 24.4728 45.7248 26.2042C45.3209 26.8836 45.0336 27.6258 44.8748 28.4C44.7325 29.0415 44.7325 29.7064 44.8748 30.3479C45.1618 31.2645 45.659 32.1014 46.3269 32.7917ZM67.5769 18.0583C70.5864 15.7438 74.1095 14.1888 77.8477 13.525C79.087 13.3111 80.3453 13.228 81.6019 13.2771C82.4716 13.2046 83.3414 13.4158 84.081 13.8792C84.5772 14.6452 84.8017 15.5557 84.7185 16.4646C84.8034 17.754 84.744 19.0488 84.5415 20.325C84.0179 24.075 82.5561 27.6322 80.2914 30.6667C77.9391 33.7699 75.0333 36.4115 71.7206 38.4583C69.3452 40.0906 66.7441 41.3673 63.9998 42.2479C63.2883 42.5072 62.5212 42.575 61.7753 42.4445C61.0294 42.314 60.3309 41.9897 59.7498 41.5042L56.881 38.7771C56.3712 38.1669 56.0309 37.4334 55.8941 36.6501C55.7573 35.8669 55.829 35.0614 56.1019 34.3146C56.9901 31.5713 58.2919 28.9796 59.9623 26.6292C62.0094 23.3588 64.624 20.4803 67.6831 18.1292L67.5769 18.0583Z" fill="#292929"/>
<path fill-rule="evenodd" clip-rule="evenodd" d="M41.9 46.5334C42.235 46.777 42.6052 46.9681 42.9979 47.1L42.7145 47.4896C41.3218 49.1735 40.133 51.0162 39.1729 52.9792C38.6816 54.2305 38.5828 55.6017 38.8895 56.9105C39.0077 57.2743 39.2146 57.6029 39.4916 57.8667C39.759 58.1394 40.0865 58.3456 40.4479 58.4688C41.8961 58.9311 43.4593 58.881 44.875 58.3271C46.8273 57.3675 48.6582 56.1785 50.3291 54.7855L50.7187 54.5021C50.8572 54.903 51.0478 55.2841 51.2854 55.6355C51.6529 56.3776 52.292 56.9499 53.0701 57.2334C53.8483 57.517 54.7057 57.4901 55.4645 57.1584C56.9655 56.3745 58.107 55.0428 58.652 53.4396C59.0375 52.3012 59.1822 51.0952 59.077 49.898C58.9498 48.3623 58.7251 46.8363 58.4041 45.3292C58.3832 45.1494 58.3252 44.9758 58.2338 44.8196C58.1424 44.6633 58.0197 44.5276 57.8733 44.4211C57.7268 44.3146 57.56 44.2396 57.3831 44.2009C57.2063 44.1621 57.0233 44.1604 56.8458 44.1959C56.6684 44.2176 56.4972 44.2745 56.342 44.3632C56.1869 44.4519 56.0509 44.5705 55.9421 44.7123C55.8333 44.8541 55.7539 45.0161 55.7084 45.1889C55.6628 45.3617 55.6522 45.5418 55.677 45.7188C55.8752 47.1152 55.9817 48.5231 55.9958 49.9334C56.0016 50.7208 55.8574 51.5021 55.5708 52.2355C55.5708 52.5542 54.7916 52.8375 54.4375 53.1563L54.2604 50.8188C54.0955 50.2414 53.7083 49.7531 53.1837 49.4609C52.6592 49.1687 52.0401 49.0966 51.4625 49.2605L50.4708 49.6146L47.8854 51.1021C47.0354 51.6334 45.7958 52.5188 44.3437 53.2271H44.1666C44.8169 52.0054 45.5383 50.8228 46.327 49.6855L47.7791 47.0292C47.9227 46.7205 48.0411 46.4007 48.1333 46.073C48.1499 45.9674 48.1499 45.8598 48.1333 45.7542C48.2063 45.481 48.22 45.1953 48.1735 44.9163C48.127 44.6374 48.0214 44.3716 47.8637 44.1368C47.7061 43.902 47.5001 43.7036 47.2594 43.555C47.0188 43.4064 46.7492 43.3109 46.4687 43.275L43.9187 43.4167C43.9187 43.4167 43.9187 43.2396 43.7062 43.4167C43.4937 43.5938 43.7062 43.7709 43.7062 43.7355C43.7062 43.7 44.6625 42.5667 45.1937 42.3542C45.9349 42.0439 46.7278 41.8757 47.5312 41.8584C48.9407 41.861 50.3486 41.9556 51.7458 42.1417C51.9041 42.1667 52.0659 42.1599 52.2216 42.1216C52.3773 42.0833 52.5237 42.0143 52.6524 41.9186C52.781 41.8229 52.8893 41.7026 52.9708 41.5645C53.0523 41.4264 53.1054 41.2735 53.127 41.1146C53.1691 40.9358 53.1709 40.7498 53.1323 40.5702C53.0937 40.3906 53.0156 40.2218 52.9038 40.076C52.7919 39.9303 52.6491 39.8112 52.4855 39.7274C52.322 39.6437 52.1419 39.5973 51.9583 39.5917C50.4607 39.2758 48.9475 39.0394 47.425 38.8834C46.2304 38.7876 45.0285 38.9198 43.8833 39.273C42.367 39.8532 41.1099 40.9594 40.3416 42.3896C40.023 43.1487 40.007 44.0009 40.2967 44.7714C40.5865 45.5419 41.1601 46.1723 41.9 46.5334Z" fill="#292929"/>
</g>
<defs>
<clipPath id="clip0_170_38">
<rect width="85" height="85" fill="white" transform="translate(13 8)"/>
</clipPath>
</defs>
</svg>
