<svg width="33" height="30" viewBox="0 0 33 30" fill="none" xmlns="http://www.w3.org/2000/svg">
<g clip-path="url(#clip0_83_5)">
<path d="M1.54433 1.5747C2.13274 0.985088 2.30101 0.855967 2.80373 0.6025C4.05536 -0.0282929 5.44281 -0.138491 6.58573 0.302043C7.22019 0.546624 7.74118 0.906142 8.68622 1.75143C9.37758 2.36981 9.81748 2.70752 10.316 3.00261C11.1262 3.48213 12.355 3.91124 13.2956 4.04323C14.1937 4.16929 18.1654 4.1699 18.9671 4.04418C20.8282 3.75221 22.5622 2.86152 23.9366 1.49137C24.8213 0.609346 25.7772 0.128802 26.8627 0.0205307C28.5467 -0.147451 30.3993 0.729522 31.3395 2.13949C32.3912 3.71669 32.4568 5.77406 31.5073 7.40224C30.9327 8.38735 29.9532 9.15173 28.7197 9.57759C27.9239 9.85229 26.6972 9.8625 25.9405 9.6006C25.1508 9.32735 24.6864 9.02548 23.6761 8.1288C22.2263 6.84196 21.1921 6.24059 19.9823 5.98098C18.2171 5.6022 14.4508 5.58913 12.5376 5.95525C11.9234 6.07278 10.8809 6.46802 10.3547 6.7827C10.1114 6.92822 9.47271 7.43947 8.93537 7.91884C7.66207 9.05471 7.33056 9.28047 6.50941 9.57108C5.21721 10.0284 3.72067 9.8485 2.48259 9.08706C1.83076 8.68621 0.913199 7.69598 0.62065 7.07766C-0.00217283 5.76119 0.00443563 4.17668 0.638545 2.76069C0.838075 2.31509 0.946187 2.17325 1.54433 1.5747Z" fill="#F9B21D"/>
<path d="M30.7903 21.7101C30.2019 21.1205 30.0336 20.9914 29.5309 20.7379C28.2793 20.1071 26.8918 19.9969 25.7489 20.4375C25.1144 20.682 24.5934 21.0416 23.6484 21.8868C22.957 22.5052 22.5171 22.8429 22.0186 23.138C21.2084 23.6175 19.9796 24.0467 19.039 24.1786C18.1409 24.3047 14.1692 24.3053 13.3675 24.1796C11.5064 23.8876 9.77244 22.9969 8.39804 21.6268C7.51335 20.7448 6.55739 20.2642 5.47187 20.1559C3.78797 19.988 1.9353 20.8649 0.995108 22.2749C-0.0565957 23.8521 -0.122221 25.9095 0.82737 27.5377C1.40191 28.5228 2.38144 29.2871 3.61497 29.713C4.41074 29.9877 5.63738 29.9979 6.39416 29.736C7.18384 29.4628 7.64826 29.1609 8.65851 28.2642C10.1083 26.9774 11.1425 26.376 12.3523 26.1164C14.1175 25.7376 17.8838 25.7246 19.797 26.0907C20.4113 26.2082 21.4537 26.6034 21.9799 26.9181C22.2232 27.0636 22.8619 27.5749 23.3993 28.0543C24.6726 29.1901 25.0041 29.4159 25.8252 29.7065C27.1174 30.1638 28.6139 29.9839 29.852 29.2225C30.5039 28.8216 31.4214 27.8314 31.714 27.2131C32.3368 25.8966 32.3302 24.3121 31.6961 22.8961C31.4965 22.4505 31.3884 22.3087 30.7903 21.7101Z" fill="#236EB5"/>
<path d="M27.258 0.0183026C26.947 0.0192612 26.6543 0.0411601 26.4198 0.0878908C24.9943 0.371918 23.775 1.25805 23.1389 2.47221C22.7346 3.24379 22.6452 3.63478 22.4845 5.3335C22.4167 6.0504 22.2963 6.8596 22.217 7.13176C22.0453 7.72037 21.55 8.71919 21.1797 9.22317C20.9996 9.46824 20.6354 9.86099 20.1432 10.3527C20.5788 10.7371 20.9564 11.1827 21.2641 11.6754C21.5942 11.3982 21.8288 11.2072 21.9247 11.1403C22.7039 10.5973 23.8965 10.0759 24.8166 9.87629C25.3828 9.75348 26.1501 9.84531 27.0775 9.8283C28.3453 9.80507 28.7564 9.57071 29.3879 9.31843C30.5253 8.86391 31.4214 7.84751 31.9097 6.53376C32.1058 6.00601 32.1872 5.46275 32.1399 4.59671L32.1208 4.24792C32.1073 4.00021 31.9447 3.48486 31.7879 3.02251C31.2895 1.55325 30.5035 0.835591 29.1514 0.294262C28.7149 0.119475 27.9422 0.0168168 27.258 0.0183026ZM11.2168 18.2657C10.5614 18.7902 10.0492 19.175 9.77038 19.3408C8.70697 19.9735 7.28874 20.0568 5.3507 20.0997C4.00024 20.1296 3.45449 20.2243 2.68978 20.5611C1.9569 20.8839 1.06473 21.7258 0.668273 22.4684C0.053768 23.6197 -0.144298 24.8462 0.104654 25.9591C0.516114 27.7985 2.21474 29.4413 4.05849 29.8821C5.70673 30.276 7.66133 29.6587 8.78139 28.3901C9.50343 27.5723 9.87725 26.5699 9.92577 25.3215C10.0012 23.3823 10.6663 21.5499 11.832 20.0699C11.8952 19.9897 12.0917 19.7955 12.3867 19.5177C11.9389 19.1583 11.5449 18.7367 11.2168 18.2657Z" fill="#09B858"/>
<path d="M16.1866 18.4339C18.1613 18.4339 19.7621 16.8331 19.7621 14.8584C19.7621 12.8837 18.1613 11.2829 16.1866 11.2829C14.2119 11.2829 12.6111 12.8837 12.6111 14.8584C12.6111 16.8331 14.2119 18.4339 16.1866 18.4339Z" fill="#E42527"/>
</g>
<defs>
<clipPath id="clip0_83_5">
<rect width="32.1764" height="30" fill="white"/>
</clipPath>
</defs>
</svg>
